<svg width="19" height="13" viewBox="0 0 19 13" fill="none" xmlns="http://www.w3.org/2000/svg">
<path d="M1.05556 7.38845C1.63852 7.38845 2.11111 6.91587 2.11111 6.3329C2.11111 5.74993 1.63852 5.27734 1.05556 5.27734C0.472588 5.27734 0 5.74993 0 6.3329C0 6.91587 0.472588 7.38845 1.05556 7.38845Z" fill="white"/>
<path d="M18.0077 5.27734H5.21439C4.6664 5.27734 4.22217 5.72158 4.22217 6.26957V6.39623C4.22217 6.94422 4.6664 7.38845 5.21439 7.38845H18.0077C18.5557 7.38845 18.9999 6.94422 18.9999 6.39623V6.26957C18.9999 5.72158 18.5557 5.27734 18.0077 5.27734Z" fill="white"/>
<path d="M18.0078 10.5557H0.992222C0.444233 10.5557 0 10.9999 0 11.5479V11.6746C0 12.2225 0.444233 12.6668 0.992222 12.6668H18.0078C18.5558 12.6668 19 12.2225 19 11.6746V11.5479C19 10.9999 18.5558 10.5557 18.0078 10.5557Z" fill="white"/>
<path d="M18.0078 0H0.992222C0.444233 0 0 0.444233 0 0.992222V1.11889C0 1.66688 0.444233 2.11111 0.992222 2.11111H18.0078C18.5558 2.11111 19 1.66688 19 1.11889V0.992222C19 0.444233 18.5558 0 18.0078 0Z" fill="white"/>
</svg>